<svg xmlns="http://www.w3.org/2000/svg" version="1.1" xmlns:xlink="http://www.w3.org/1999/xlink" width="512" height="512" x="0" y="0" viewBox="0 0 512.002 512.002" style="enable-background:new 0 0 512 512" xml:space="preserve" class=""><g><linearGradient id="a" x1="236.938" x2="236.938" y1="458.428" y2="-71.182" gradientTransform="matrix(1.0667 0 0 -1.0667 3.267 557.535)" gradientUnits="userSpaceOnUse"><stop offset="0" style="stop-color:#FFCF95" stop-color="#ffcf95"></stop><stop offset=".427" style="stop-color:#FFC954" stop-color="#ffc954"></stop><stop offset="1" style="stop-color:#FFC200" stop-color="#ffc200"></stop></linearGradient><path d="m274.84 23.212 67.722 137.218 151.429 22.004c17.232 2.503 24.112 23.68 11.644 35.835L396.058 325.077l25.867 150.817c2.944 17.162-15.07 30.25-30.482 22.147L256 426.835l-135.442 71.206c-15.412 8.102-33.426-4.985-30.482-22.147l25.867-150.817L6.367 218.268c-12.469-12.155-5.588-33.33 11.644-35.835l151.429-22.004 67.721-137.217c7.707-15.615 29.972-15.615 37.679 0z" style="fill:url(#a);" fill=""></path><linearGradient id="b" x1="361.338" x2="201.238" y1="390.131" y2="390.131" gradientTransform="matrix(1.0667 0 0 -1.0667 3.267 557.535)" gradientUnits="userSpaceOnUse"><stop offset="0" style="stop-color:#FFC200;stop-opacity:0" stop-color="#ffc200;stop-opacity:0"></stop><stop offset=".203" style="stop-color:#FFBB00;stop-opacity:0.203" stop-color="#ffbb00;stop-opacity:0.203"></stop><stop offset=".499" style="stop-color:#FFA700;stop-opacity:0.499" stop-color="#ffa700;stop-opacity:0.499"></stop><stop offset=".852" style="stop-color:#FF8800;stop-opacity:0.852" stop-color="#ff8800;stop-opacity:0.852"></stop><stop offset="1" style="stop-color:#FF7800" stop-color="#ff7800"></stop></linearGradient><path d="M342.56 160.43 274.84 23.212c-3.853-7.807-11.346-11.711-18.839-11.711V271.29l86.559-110.86z" style="fill:url(#b);" fill=""></path><linearGradient id="c" x1="388.687" x2="346.287" y1="144.838" y2="353.638" gradientTransform="matrix(1.0667 0 0 -1.0667 3.267 557.535)" gradientUnits="userSpaceOnUse"><stop offset="0" style="stop-color:#FFC200;stop-opacity:0" stop-color="#ffc200;stop-opacity:0"></stop><stop offset=".203" style="stop-color:#FFBB00;stop-opacity:0.203" stop-color="#ffbb00;stop-opacity:0.203"></stop><stop offset=".499" style="stop-color:#FFA700;stop-opacity:0.499" stop-color="#ffa700;stop-opacity:0.499"></stop><stop offset=".852" style="stop-color:#FF8800;stop-opacity:0.852" stop-color="#ff8800;stop-opacity:0.852"></stop><stop offset="1" style="stop-color:#FF7800" stop-color="#ff7800"></stop></linearGradient><path d="m396.058 325.077 109.575-106.81c6.151-5.996 7.586-14.185 5.399-21.247L256 271.289l140.058 53.788z" style="fill:url(#c);" fill=""></path><linearGradient id="d" x1="183.098" x2="349.158" y1="35.109" y2="201.169" gradientTransform="matrix(1.0667 0 0 -1.0667 3.267 557.535)" gradientUnits="userSpaceOnUse"><stop offset="0" style="stop-color:#FFC200;stop-opacity:0" stop-color="#ffc200;stop-opacity:0"></stop><stop offset=".203" style="stop-color:#FFBB00;stop-opacity:0.203" stop-color="#ffbb00;stop-opacity:0.203"></stop><stop offset=".499" style="stop-color:#FFA700;stop-opacity:0.499" stop-color="#ffa700;stop-opacity:0.499"></stop><stop offset=".852" style="stop-color:#FF8800;stop-opacity:0.852" stop-color="#ff8800;stop-opacity:0.852"></stop><stop offset="1" style="stop-color:#FF7800" stop-color="#ff7800"></stop></linearGradient><path d="M413.63 496.393 256 271.289v155.546l135.442 71.206c7.734 4.066 16.121 2.794 22.188-1.648z" style="fill:url(#d);" fill=""></path><linearGradient id="e" x1="64.678" x2="187.078" y1="245.108" y2="142.708" gradientTransform="matrix(1.0667 0 0 -1.0667 3.267 557.535)" gradientUnits="userSpaceOnUse"><stop offset="0" style="stop-color:#FFC200;stop-opacity:0" stop-color="#ffc200;stop-opacity:0"></stop><stop offset=".203" style="stop-color:#FFBB00;stop-opacity:0.203" stop-color="#ffbb00;stop-opacity:0.203"></stop><stop offset=".499" style="stop-color:#FFA700;stop-opacity:0.499" stop-color="#ffa700;stop-opacity:0.499"></stop><stop offset=".852" style="stop-color:#FF8800;stop-opacity:0.852" stop-color="#ff8800;stop-opacity:0.852"></stop><stop offset="1" style="stop-color:#FF7800" stop-color="#ff7800"></stop></linearGradient><path d="m256 271.289-140.058 53.788-25.866 150.817c-1.467 8.55 2.271 16.087 8.294 20.499L256 271.289z" style="fill:url(#e);" fill=""></path><linearGradient id="f" x1="156.433" x2="106.833" y1="414.02" y2="273.22" gradientTransform="matrix(1.0667 0 0 -1.0667 3.267 557.535)" gradientUnits="userSpaceOnUse"><stop offset="0" style="stop-color:#FFC200;stop-opacity:0" stop-color="#ffc200;stop-opacity:0"></stop><stop offset=".203" style="stop-color:#FFBB00;stop-opacity:0.203" stop-color="#ffbb00;stop-opacity:0.203"></stop><stop offset=".499" style="stop-color:#FFA700;stop-opacity:0.499" stop-color="#ffa700;stop-opacity:0.499"></stop><stop offset=".852" style="stop-color:#FF8800;stop-opacity:0.852" stop-color="#ff8800;stop-opacity:0.852"></stop><stop offset="1" style="stop-color:#FF7800" stop-color="#ff7800"></stop></linearGradient><path d="M.968 197.021 256 271.289l-86.56-110.86-151.429 22.005C9.28 183.702 3.214 189.767.968 197.021z" style="fill:url(#f);" fill=""></path><linearGradient id="g" x1="343.14" x2="-21.26" y1="399.316" y2="244.116" gradientTransform="matrix(1.0667 0 0 -1.0667 3.267 557.535)" gradientUnits="userSpaceOnUse"><stop offset="0" style="stop-color:#FFC200;stop-opacity:0" stop-color="#ffc200;stop-opacity:0"></stop><stop offset=".203" style="stop-color:#FFBB00;stop-opacity:0.203" stop-color="#ffbb00;stop-opacity:0.203"></stop><stop offset=".499" style="stop-color:#FFA700;stop-opacity:0.499" stop-color="#ffa700;stop-opacity:0.499"></stop><stop offset=".852" style="stop-color:#FF8800;stop-opacity:0.852" stop-color="#ff8800;stop-opacity:0.852"></stop><stop offset="1" style="stop-color:#FF7800" stop-color="#ff7800"></stop></linearGradient><path d="M115.943 325.077 6.367 218.268c-6.151-5.996-7.586-14.185-5.399-21.247L256 271.289l-140.057 53.788z" style="fill:url(#g);" fill=""></path></g></svg>