<svg xmlns="http://www.w3.org/2000/svg" version="1.1" xmlns:xlink="http://www.w3.org/1999/xlink" width="512" height="512" x="0" y="0" viewBox="0 0 32 32" style="enable-background:new 0 0 512 512" xml:space="preserve" class=""><g><path d="M29 9a3 3 0 0 0-3-3h-4V5a3 3 0 0 0-3-3h-6a3 3 0 0 0-3 3v1H6a3 3 0 0 0-.91 5.84l1.73 15.57A3 3 0 0 0 9.8 30h12.4a3 3 0 0 0 3-2.59l1.73-15.57A3 3 0 0 0 29 9zM12 5a1 1 0 0 1 1-1h6a1 1 0 0 1 1 1v1h-8zm11.19 22.19a1 1 0 0 1-1 .81H9.8a1 1 0 0 1-1-.81L7.12 12h17.76zM26 10H6a1 1 0 0 1 0-2h20a1 1 0 0 1 0 2z" fill="#ff0000" opacity="1" data-original="#000000" class=""></path><path d="M13 25a1 1 0 0 0 1-1v-9a1 1 0 0 0-2 0v9a1 1 0 0 0 1 1zM19 25a1 1 0 0 0 1-1v-9a1 1 0 0 0-2 0v9a1 1 0 0 0 1 1z" fill="#ff0000" opacity="1" data-original="#000000" class=""></path></g></svg>